# xmcd
#
# Track frame offsets:
# 150
# 23624
# 39213
# 52090
# 75933
# 96292
# 107900
# 122360
# 143572
# 168953
# 187494
# 202520
# 219741
# 228345
# 252685
# 264054
# 298809
#
# Disc length: 4386 seconds
#
#
# Revision: 2
# Processed by: cddbd v1.5.1PL0 Copyright (c) Steve Scherf et al.
# Submitted via: FreeRIP 2.941 
#
DISCID=e6112011
DTITLE=The Flesh Eaters - A Hard Road to Follow
DYEAR=1983
DGENRE=LA Spastic Underground
TTITLE0=Life's a Dirty Rat
TTITLE1=Rhymes
TTITLE2=The Hammer Hits the Nail
TTITLE3=My Destiny
TTITLE4=Buried Treasure
TTITLE5=I Take What I Want
TTITLE6=Eyes Without a Face
TTITLE7=Father of Lies
TTITLE8=Fistful of Vodka
TTITLE9=Every Time I Call your Name
TTITLE10=We'll Never Die
TTITLE11=Poison Arrow
TTITLE12=Impossible Crime
TTITLE13=Pony Dress
TTITLE14=Hard Road to Follow
TTITLE15=Lake of Burning Fire
TTITLE16=Divine Horseman
EXTD=
EXTT0=
EXTT1=
EXTT2=
EXTT3=
EXTT4=
EXTT5=
EXTT6=
EXTT7=
EXTT8=
EXTT9=
EXTT10=
EXTT11=
EXTT12=
EXTT13=
EXTT14=
EXTT15=
EXTT16=
PLAYORDER=
